<svg width="180" height="180" viewBox="0 0 180 180" fill="none" xmlns="http://www.w3.org/2000/svg">
<rect width="180" height="180" fill="#BFBFBF"/>
<path d="M120.452 112.113C118.794 108.186 116.388 104.619 113.368 101.61C110.358 98.5931 106.791 96.1875 102.865 94.5264C102.83 94.5088 102.795 94.5 102.76 94.4824C108.236 90.5273 111.795 84.085 111.795 76.8164C111.795 64.7754 102.039 55.0195 89.9983 55.0195C77.9573 55.0195 68.2014 64.7754 68.2014 76.8164C68.2014 84.085 71.761 90.5273 77.2365 94.4912C77.2014 94.5088 77.1662 94.5176 77.1311 94.5352C73.1936 96.1963 69.6604 98.5781 66.6281 101.619C63.6109 104.63 61.2053 108.197 59.5442 112.122C57.9122 115.965 57.0321 120.085 56.9514 124.26C56.949 124.354 56.9655 124.447 56.9998 124.534C57.0341 124.622 57.0855 124.701 57.151 124.768C57.2165 124.836 57.2948 124.889 57.3813 124.925C57.4678 124.962 57.5607 124.98 57.6545 124.98H62.928C63.3147 124.98 63.6223 124.673 63.6311 124.295C63.8069 117.51 66.5315 111.155 71.3479 106.339C76.3313 101.355 82.9494 98.6133 89.9983 98.6133C97.0471 98.6133 103.665 101.355 108.649 106.339C113.465 111.155 116.19 117.51 116.365 124.295C116.374 124.682 116.682 124.98 117.069 124.98H122.342C122.436 124.98 122.529 124.962 122.615 124.925C122.702 124.889 122.78 124.836 122.846 124.768C122.911 124.701 122.962 124.622 122.997 124.534C123.031 124.447 123.047 124.354 123.045 124.26C122.957 120.059 122.087 115.972 120.452 112.113ZM89.9983 91.9336C85.9641 91.9336 82.1672 90.3604 79.3108 87.5039C76.4543 84.6475 74.8811 80.8506 74.8811 76.8164C74.8811 72.7822 76.4543 68.9854 79.3108 66.1289C82.1672 63.2725 85.9641 61.6992 89.9983 61.6992C94.0324 61.6992 97.8293 63.2725 100.686 66.1289C103.542 68.9854 105.115 72.7822 105.115 76.8164C105.115 80.8506 103.542 84.6475 100.686 87.5039C97.8293 90.3604 94.0324 91.9336 89.9983 91.9336Z" fill="white"/>
</svg>
